<svg data-v-fde0c5aa="" xmlns="http://www.w3.org/2000/svg" viewBox="0 0 300 300" class="iconLeftSlogan"><!----><defs data-v-fde0c5aa=""><!----></defs><rect data-v-fde0c5aa="" fill="#0B173D" x="0" y="0" width="300px" height="300px" class="logo-background-square"></rect><defs data-v-fde0c5aa=""><!----></defs><g data-v-fde0c5aa="" id="838368d6-871e-4165-8298-585d09b51a19" fill="#D1A103" transform="matrix(3.2331700368735063,0,0,3.2331700368735063,117.77284070057088,108.31493533450481)"><path d="M7.91 5.03C7.91 3.08 5.92 2.80 4.68 2.80C3.22 2.80 2.30 3.18 1.36 3.57C1.36 3.71 1.67 3.95 1.81 3.95C1.99 3.95 2.56 3.40 3.74 3.19C2.51 5.59 1.05 10.12 0.77 11.05C0.70 11.28 0.57 11.62 0.57 11.84C0.57 12.22 0.94 12.52 1.40 12.52C1.82 11.07 2.23 9.52 2.66 8.01C2.97 8.01 3.35 7.99 3.71 7.99C5.31 7.99 7.24 8.23 7.24 9.76C7.24 11.45 4.89 13.08 1.67 13.08C0.71 13.08 0.48 12.94 0.35 12.94C0.31 12.94 0.28 12.95 0.28 12.98C0.28 13.78 0.81 14.10 1.83 14.10C3.92 14.10 7.90 12.74 7.90 10.01C7.90 9.13 7.48 7.92 4.70 7.76C6.15 7.52 7.91 6.86 7.91 5.03ZM4.70 3.09C5.91 3.09 7.07 3.46 7.07 4.91C7.07 6.96 4.79 7.62 2.74 7.69C3.23 6.02 3.77 4.42 4.44 3.11C4.52 3.09 4.61 3.09 4.70 3.09ZM12.52 9.09C11.98 10.14 10.84 12.74 9.97 12.74C9.51 12.74 9.46 12.04 9.46 11.80C9.46 10.86 10.09 9.46 10.40 8.99C10.25 8.82 9.98 8.71 9.88 8.71C9.46 8.71 8.65 10.82 8.65 11.89C8.65 12.64 9.07 13.30 9.70 13.30C10.40 13.30 11.02 12.49 11.54 11.56C11.48 11.80 11.44 12.04 11.44 12.26C11.44 12.84 11.68 13.30 12.42 13.30C13.41 13.30 14.63 12.25 15.23 10.74L15.05 10.61C14.36 12.05 13.30 12.88 12.71 12.88C12.38 12.88 12.25 12.66 12.25 12.32C12.25 11.38 13.19 9.60 13.19 9.45C13.19 9.21 12.67 9.11 12.52 9.09ZM19.29 9.07C19.18 9.04 19.08 9.03 19.00 9.03C18.54 9.03 18.34 9.48 18.28 9.74C18.24 9.97 18.20 10.18 18.14 10.39C17.58 11.31 16.81 12.18 16.28 12.18C15.90 12.18 15.78 11.96 15.78 11.62C15.78 10.86 16.38 9.35 16.70 8.88C16.70 8.71 16.20 8.55 16.09 8.55C15.68 8.55 14.85 10.57 14.85 11.61C14.85 12.39 15.43 12.74 15.97 12.74C16.73 12.74 17.42 11.94 18.02 10.96C17.77 11.98 17.50 12.84 17.23 13.52C15.82 14.24 14.52 14.87 14.52 16.06C14.52 16.55 14.92 16.80 15.40 16.80C16.37 16.80 17.32 15.16 18.05 13.37C19.08 12.89 20.27 12.10 20.69 10.75L20.51 10.61C19.98 11.90 19.07 12.66 18.20 12.99C18.86 11.30 19.29 9.53 19.29 9.07ZM15.33 16.35C15.05 16.35 14.95 16.09 14.95 15.93C14.95 15.01 15.93 14.48 17.09 13.86C16.34 15.71 15.61 16.35 15.33 16.35ZM26.10 3.14C26.75 3.14 27.09 3.47 27.09 4.05C27.09 4.77 26.57 5.42 25.91 5.99C26.03 6.23 26.22 6.44 26.43 6.44C26.89 6.44 27.55 5.38 27.55 4.33C27.55 3.36 26.99 2.81 25.96 2.81C24.29 2.81 23.07 4.23 23.07 5.71C23.07 6.50 23.41 7.32 24.14 7.92C22.12 8.12 20.51 9.83 20.51 11.55C20.51 12.94 21.56 14.10 23.24 14.10C25.12 14.10 26.63 12.66 27.61 10.75L27.41 10.61C26.67 12.21 25.09 13.62 23.60 13.62C22.29 13.62 21.81 12.52 21.81 11.59C21.81 10.11 23.03 8.37 24.91 8.06C24.23 7.49 24.09 6.62 24.09 5.95C24.09 4.42 24.79 3.14 26.10 3.14ZM31.05 9.91C30.37 10.92 28.98 12.96 28.11 12.96C27.86 12.96 27.73 12.80 27.73 12.42C27.73 11.06 29.30 8.46 30.62 8.46C31.12 8.46 31.30 8.82 31.30 9.24C31.30 9.39 31.28 9.58 31.23 9.73C31.64 9.73 31.92 9.59 31.92 9.13C31.92 8.50 31.37 8.08 30.65 8.08C28.83 8.08 26.77 10.71 26.77 12.38C26.77 13.16 27.22 13.54 27.80 13.54C28.49 13.54 29.11 12.99 29.92 11.91C29.89 12.07 29.88 12.21 29.88 12.32C29.88 12.81 30.20 13.30 30.88 13.30C31.88 13.30 33.07 12.26 33.66 10.75L33.52 10.61C32.68 12.10 31.78 12.82 31.28 12.82C30.94 12.82 30.80 12.49 30.80 12.21C30.80 11.54 31.61 10.58 31.61 10.26C31.61 10.05 31.22 9.94 31.05 9.91ZM32.97 11.76C32.97 12.60 33.40 13.59 34.72 13.59C35.52 13.59 36.22 13.23 36.51 12.43C37.35 12.31 38.12 11.79 38.47 10.77L38.35 10.63C37.80 11.68 37.23 12.10 36.58 12.21C36.64 12.00 36.67 11.77 36.67 11.52C36.67 10.23 35.94 9.07 35.94 8.15C35.94 7.83 36.02 7.63 36.02 7.53C36.02 7.43 35.95 7.35 35.80 7.35C35.53 7.35 35.25 7.62 35.25 8.30L35.25 8.47C34.90 9.21 34.43 9.88 33.87 10.50C33.71 10.67 32.97 10.65 32.97 11.76ZM35.76 11.54C35.76 11.82 35.73 12.01 35.70 12.19C34.85 12.01 34.24 11.42 33.96 10.82C34.38 10.40 34.89 9.72 35.32 9.00C35.46 9.77 35.76 10.65 35.76 11.54ZM34.75 13.10C34.02 13.10 33.60 12.42 33.60 11.75C33.60 11.45 33.68 11.27 33.91 11.26C34.20 11.73 34.85 12.26 35.63 12.42C35.42 13.03 34.97 13.10 34.75 13.10ZM42.59 9.07C42.48 9.04 42.38 9.03 42.29 9.03C41.83 9.03 41.64 9.48 41.58 9.74C41.54 9.97 41.50 10.18 41.44 10.39C40.88 11.31 40.11 12.18 39.58 12.18C39.20 12.18 39.07 11.96 39.07 11.62C39.07 10.86 39.68 9.35 40.00 8.88C40.00 8.71 39.49 8.55 39.38 8.55C38.98 8.55 38.15 10.57 38.15 11.61C38.15 12.39 38.72 12.74 39.27 12.74C40.03 12.74 40.71 11.94 41.31 10.96C41.06 11.98 40.80 12.84 40.53 13.52C39.12 14.24 37.81 14.87 37.81 16.06C37.81 16.55 38.22 16.80 38.70 16.80C39.66 16.80 40.61 15.16 41.34 13.37C42.38 12.89 43.57 12.10 43.99 10.75L43.81 10.61C43.27 11.90 42.36 12.66 41.50 12.99C42.15 11.30 42.59 9.53 42.59 9.07ZM38.63 16.35C38.35 16.35 38.25 16.09 38.25 15.93C38.25 15.01 39.23 14.48 40.39 13.86C39.63 15.71 38.91 16.35 38.63 16.35Z"></path></g><defs data-v-fde0c5aa=""><!----></defs><g data-v-fde0c5aa="" id="a0661703-d642-45ac-b601-8421f181eb9a" stroke="none" fill="#D1A103" transform="matrix(1.2669047060957885,0,0,1.2669047060957885,9.72097075830957,86.40710489119492)"><path d="M75.6 78.3c-.2-1.4-.4-2.7-.5-4.1 0-.8-.2-1.6-.4-2.3-.2-.6-.3-1.2-.4-1.8-.1-1.1-.3-2.2-.3-3.3 0-.6-.1-1.1-.2-1.7-.2-1.5-.4-3.1-.5-4.6 0-.6-.1-1.2-.2-1.8 0-1-.1-2-.1-3 0-.8-.1-1.5-.2-2.2-.2-.9-.4-1.8-.4-2.7 0-1.1-.2-2.2-.3-3.3-.1-.7-.2-1.5-.2-2.2 0-.7-.1-1.4-.1-2.1v-.4c.1-1 .1-1.9.3-2.9.2-1.1.1-2.2.2-3.3 0-.4-.1-.7-.3-1-.2-.2-.3-.5-.5-.6-.5-.5-1.1-1-1.7-1.5-.6-.4-1.2-.7-2-.7-.7-.1-1.5-.2-2.2-.2-.2 0-.3 0-.5-.1-.2 0-.4-.3-.4-.5s0-.4.1-.5c.2-.4.4-.7.6-1 .4-.6.7-1.3 1-2 .3-.8.5-1.6.4-2.5-.1-1.4-1.2-2.9-2.7-3.3-.5-.1-.9-.2-1.4-.2-.9 0-1.8 0-2.8.2-1 .2-1.9.3-2.8.6-.8.3-1.7.6-2.5.9-.8.3-1.1.1-1.5-.4-.2-.2-.3-.4-.5-.6-.3-.4-.6-.7-1-1.1-.5-.5-1-.9-1.6-1.4-.5-.5-1.1-.9-1.7-1.2-.9-.5-1.9-.9-3-1.1-1-.2-2-.3-3-.1-.4.1-.8.2-1.1.4-.7.3-1.4.8-1.9 1.4-.7.7-.9 1.5-.9 2.4 0 .7.1 1.4.2 2.1.1.7.4 1.4.8 2.1.3.5.6 1.1.9 1.6l.3.9c.2.6.3 1.3.5 1.9 0 .2.1.3.1.5 0 .4-.2.7-.6.8-.7.1-1.5.2-2.2.2-1.3 0-2.6.3-3.9.5-.5.1-.9.2-1.4.3-.4.1-.7.3-.9.7-.3.7-.5 1.4-.8 2.1-.2.5-.4 1.1-.4 1.7-.1.9-.2 1.8-.5 2.7l-.3 1.2c-.2 1.1-.5 2.2-.8 3.3-.1.5-.2.9-.3 1.4-.1.3-.1.7-.2 1-.1.7-.3 1.3-.5 1.9-.2.4-.3.7-.4 1.1-.4 1.7-.9 3.3-1.2 5-.2 1.1-.5 2.2-.8 3.2-.1.4-.3.8-.4 1.3-.2.5-.2.9-.3 1.4-.1 1.9-.4 3.8-.7 5.6l-.3 1.8c-.1 1.4-.3 2.9-.4 4.4v1.2c0 .7.1 1.4.6 2 .1.1.2.3.3.5.2.5.6.9 1 1.2.4.3.7.6 1 1 .5.7 1.1 1.4 1.7 2.1.4.4.8.7 1.4.7.4 0 .9 0 1.3.1 1 .2 1.9.2 2.9.2H73.5c.5 0 1-.1 1.4-.2.4-.1.6-.3.7-.7.1-.3.1-.5.1-.8.1-.9 0-1.6-.1-2.2zm-9.7-44.5c0-.1 0-.1 0 0 .6 0 1.1 0 1.7.1.4 0 .8.2 1.1.3l.3.3c.2.2.1.6-.2.6-.2 0-.3.1-.5.1h-1.6c-.7 0-1.4 0-2.1.2-.3.1-.7 0-1 0-.2 0-.4-.3-.4-.6.1-.4.2-.7.5-.9.2-.2.5-.2.7-.2.5 0 1 0 1.5.1zm-10.6-8.4c.1 0 .2-.1.2-.1 1.8-.7 3.6-1.3 5.6-1.5.6-.1 1.2 0 1.8 0 .2 0 .4.1.6.1 1.4.4 1.9 1.7 1.7 2.6-.1.4-.2.9-.3 1.3-.2.5-.5 1-.8 1.5-.4.6-.8 1.3-1.1 1.9-.1.1-.1.2-.2.3-.2.3-.4.4-.8.4h-2.2c-.9 0-1.7 0-2.6.1h-.8c-.3 0-.5-.2-.6-.5-.1-.2-.1-.3-.2-.5-.3-1.4-.6-2.8-1-4.3 0-.2-.1-.3-.1-.5.3-.2.5-.6.8-.8zm1.4 8.1c.6 0 1.2 0 1.7-.1.9-.1 1.8 0 2.6 0 .1 0 .2.1.3.1.1 0 .3.3.3.4 0 .5-.2.8-.6 1.1-.2.2-.5.2-.7.3-.7 0-1.4 0-2.1-.1-.7-.1-1.3-.1-2-.1h-7.6c-.5 0-1 0-1.4-.1-.3 0-.5-.4-.4-.7.2-.5.5-.7.9-.8h.5c1.1 0 2.3 0 3.4.1h2.8c.7 0 1.5 0 2.3-.1zm-3.3-6.1c0 .1.1.2.1.2.3 1.1.5 2.2.8 3.3.1.3 0 .5 0 .8 0 .2-.3.4-.4.5-.2 0-.3.1-.5.1h-4.1c-.2 0-.3-.1-.5-.1-.2-.1-.3-.4-.3-.6 0-.1.1-.2.1-.2.1-.2.2-.4.4-.5.9-1 1.8-2 2.7-2.9.3-.3.6-.6.9-.7.3-.3.6-.2.8.1zm-12.6-1.8c-.3-.5-.5-1.1-.6-1.7 0-.5-.1-1-.2-1.4-.1-.8.2-1.5.9-2 .3-.2.6-.5 1-.7.3-.2.6-.3 1-.3 1.4-.2 2.8.1 4.1.7.9.4 1.7.9 2.4 1.6.4.4.9.8 1.4 1.2.5.5 1 1 1.3 1.6.2.3.1.6-.1.9-.1.1-.2.3-.4.4-.9.7-1.7 1.5-2.4 2.4-.2.2-.4.5-.6.7-.4.4-.7.9-1.1 1.3-.4.4-.7.9-1.1 1.3-.3.4-.7.5-1.1.6h-1.5c-.4 0-.7-.3-.9-.7 0-.1-.1-.3-.1-.4-.1-.4-.2-.9-.2-1.3-.1-.8-.4-1.6-.8-2.4-.3-.6-.6-1.2-1-1.8zm-5.5 8.3c.7-.2 1.5-.3 2.2-.4.9 0 1.9 0 2.8-.1h.7c1 .1 1.9.1 2.9.1.3 0 .5 0 .8.1.2 0 .4.3.4.5 0 .4-.1.7-.4 1-.1.2-.3.3-.6.3H41.2c-.5 0-1 0-1.5.1-.7.1-1.4.1-2.1.2h-.8c-.5 0-.9-.1-1.2-.5-.2-.2-.4-.5-.6-.7-.1-.2.1-.5.3-.6zm-5 39c0 .7-.1 1.4-.3 2.1-.2.9-.5 1.9-.6 2.8 0 .1-.1.2-.1.2-.1.3-.5.4-.7.2 0 0-.1 0-.1-.1-.5-.6-1.1-1.2-1.8-1.8-.4-.4-.7-.8-1-1.2-.2-.3-.3-.6-.3-1v-.5c0-.3 0-.5.1-.8.2-.7.2-1.5.2-2.2.1-1.2.2-2.4.4-3.5.3-1.6.6-3.2.6-4.8 0-1 .2-2 .6-3 .5-1.3.8-2.7 1-4.1.1-.7.3-1.5.5-2.2.3-1.3.6-2.6 1.1-3.8.3-.8.4-1.6.5-2.5.1-.6.2-1.1.3-1.7.3-1.1.6-2.3.8-3.5 0-.2.1-.4.1-.6.2-.8.4-1.6.4-2.5.1-.9.2-1.8.5-2.7 0-.1.1-.2.2-.4s.5-.3.7-.2c.7.4 1.3.9 1.7 1.6.1.1.1.3.1.5s-.1.4-.1.6c-.5 2.2-1 4.5-1.4 6.7l-.3 1.8c-.2 1.3-.5 2.6-.7 3.9-.1.6-.3 1.2-.3 1.8-.1.8-.2 1.5-.4 2.2-.4 1.4-.6 2.7-.7 4.2 0 1.1-.2 2.2-.3 3.3-.2 2.4-.4 4.8-.6 7.3 0 1.3-.1 2.6-.1 3.9zm43.3 7.3c-.3 0-.6.1-.9.1H39.1c-1.8 0-3.5 0-5.3.1-.8 0-1.6-.1-2.4-.2-.1 0-.2 0-.3-.1-.3-.1-.4-.3-.5-.6-.1-.8 0-1.5.1-2.2.2-.7.3-1.5.5-2.2.1-.3.1-.6.2-.9.1-1.3.2-2.5.2-3.8 0-.7 0-1.4.2-2.1.1-.4.1-.8.1-1.2 0-.9 0-1.9.2-2.8V64c.1-1.3.2-2.5.3-3.8 0-.4.1-.9.1-1.3 0-.3.1-.5.1-.8 0-1.1.2-2.2.5-3.3.2-.9.4-1.7.5-2.6.1-.8.3-1.6.4-2.3.3-1.6.6-3.1.8-4.7.1-1.2.4-2.3.6-3.5.1-.9.3-1.7.5-2.6.1-.5.2-1 .3-1.4.1-.4.4-.7.8-.7h1.1c.4 0 .9 0 1.3-.1 1.3-.2 2.6-.1 3.8-.1.1 0 .3 0 .4.1.3.1.5.4.6.7 0 .7 0 1.3-.4 1.9-.2.3-.3.7-.4 1.1-.1.7.3 1.4 1 1.7.2.1.4.1.6 0 .6-.2.9-.7 1-1.3v-.4c0-.2-.1-.4-.2-.5-.4-.5-.4-1.1-.3-1.8.1-.3.1-.6.1-.9.1-.3.3-.5.5-.5.4-.1.8-.2 1.2-.2.7 0 1.4-.1 2.1-.1h.8c1.2.2 2.5.2 3.7.1 1.1-.1 2.3-.1 3.4.1.5.1 1 0 1.5.1.2 0 .4 0 .7.1.2 0 .5.3.5.6s0 .6-.1.9c-.1.7-.2 1.3-.4 1.9-.1.3-.1.7-.1 1 0 .4.2.8.6.9.4.2.8.3 1.3.1.8-.3 1.1-1.3.7-2 0 0 0-.1-.1-.1-.7-.6-.6-1.4-.4-2.2.2-.8.4-1.1 1.4-1.1.6 0 1.1-.1 1.7-.2.6-.1 1.2-.1 1.8-.1h1.9c.3 0 .6 0 .9.1.4 0 .7.4.7.8-.1 1.4 0 2.8.2 4.2.1 1 .2 1.9.2 2.9 0 1.3.2 2.6.3 4 .4.3.4.7.4 1.1 0 1.3.2 2.6.4 3.8.1.6.2 1.2.2 1.8v1.5c.1 2 .2 4 .4 5.9 0 .3.1.6.1.9 0 .4 0 .7.1 1.1.1.7.2 1.3.2 2 .1 1.2.2 2.5.4 3.7.1.6.2 1.2.4 1.8.3.8.4 1.5.4 2.3 0 1.4.3 2.8.5 4.2 0 .3.1.5.1.8 0 .3-.3.6-.6.6z"></path><path d="M62.5 52.7c-.2-.3-.4-.6-.7-.7-.4-.3-.8-.5-1.3-.6-1.3-.3-2.5-.3-3.8-.1-1 .2-2.1.5-3 1-.9.4-1.6 1-2.1 1.9-.1.2-.3.4-.4.5-.1.1-.4.1-.5.1-.3-.1-.6-.4-.8-.6-.6-.5-1.3-1.1-2-1.5-.8-.5-1.7-.9-2.7-1-.4-.1-.8-.1-1.2 0-1.6.3-2.9 1.1-3.9 2.3-.5.5-.8 1.2-.8 1.9V57c0 .4.1.7.1 1.1 0 .4.2.8.4 1.1.5.8 1.1 1.6 1.9 2.2 1 .7 2 1.3 3.1 1.8 1.2.5 2.2 1.3 3.1 2.2.3.2.5.5.7.8l.6.9c.4.5.7 1 1.1 1.5.3.4.9.5 1.4.3.3-.1.5-.3.7-.5.9-1 1.9-1.8 3.1-2.5.4-.2.8-.4 1.1-.7 1-.6 1.9-1.2 2.9-1.9 1.6-1 2.8-2.4 3.7-4.1.5-1 .7-2 .6-3.1-.2-1.4-.7-2.4-1.3-3.4zm-1 5.8c-.7 1.3-1.7 2.3-3 3.2-1.1.7-2.2 1.5-3.4 2.1-1.3.7-2.5 1.5-3.5 2.5-.1.1-.3.2-.4.3-.2.1-.6.1-.7-.1-.1-.1-.2-.2-.2-.3-.2-.3-.3-.5-.5-.8-.5-.8-1.1-1.6-1.9-2.2-.3-.2-.6-.5-.9-.7-.5-.4-1.1-.8-1.7-1-1-.4-1.8-1.1-2.7-1.6-.6-.4-1-1-1.4-1.6-.2-.3-.3-.6-.3-1 0-.3 0-.6-.1-1v-.5c0-.4.2-.7.4-1 .7-.8 1.5-1.4 2.5-1.7.7-.3 1.5-.1 2.2.1.7.3 1.4.6 2 1.1.6.4 1.1.9 1.6 1.4.5.5 1 1 1.3 1.6.1.2.2.3.3.4.4.4 1.1.2 1.3-.3.1-.2.1-.4.1-.6 0-.6.2-1.1.4-1.7.2-.6.6-1.1 1.2-1.4 1.4-.8 2.8-1.2 4.4-1.2.5 0 1.1.1 1.6.2.6.1 1 .5 1.4 1 .4.7.7 1.4.7 2.2-.1 1.1-.3 1.8-.7 2.6zM59 69.3l-.3.3c-.2.4-.2.8-.1 1.1 0 .1.2.3.4.3.1 0 .3-.1.3-.2.1-.1.2-.2.2-.3.1-.3.1-.5.1-.7 0-.1 0-.2-.1-.3 0-.2-.3-.4-.5-.2zM69 62.3c-.3.4-.2 1 .2 1.3.1.1.4.1.5 0 .2-.2.3-.4.3-.7 0-.2-.1-.4-.2-.6-.3-.2-.7-.2-.8 0zM67.6 47c-.1-.1-.4-.1-.5 0-.3.4-.3.8 0 1.2.1.1.2.2.3.1.1 0 .2-.1.3-.2.1-.1.1-.3.1-.4 0-.3 0-.5-.2-.7zM35.5 77.4c-.5.3-.7.7-.5 1.2 0 .1.2.1.3.2.1 0 .1 0 .2-.1.4-.3.6-.6.6-1.1-.1-.2-.4-.3-.6-.2zM45.8 75.5c-.2 0-.4 0-.5.1-.2.3-.2.6-.1.9.1.2.4.3.6.2.2-.2.3-.4.3-.5v-.3c0-.2-.2-.4-.3-.4zM43.8 68.1c-.1 0-.2.1-.3.2-.2.3-.3.6-.1.8.1.1.2.1.3.2.1 0 .1 0 .2-.1.3-.2.4-.5.3-.8-.1-.2-.2-.3-.4-.3zM36.9 67c-.1-.1-.4 0-.4.2-.1.2-.1.5-.1.7 0 .1.1.2.3.2.1 0 .3 0 .3-.2.1-.1.1-.3.2-.4v-.3c-.1 0-.2-.1-.3-.2zM65.9 75.1c-.1-.1-.2-.2-.3-.2-.1 0-.3.1-.3.1-.2.3-.2.5-.1.8.1.1.3.2.4.1.1-.1.2-.3.2-.4v-.3l.1-.1zM47.2 46.2c.2-.2.2-.3.2-.6v-.1c0-.2-.2-.4-.3-.3-.1 0-.3.1-.3.2-.2.2-.2.5-.1.7 0 .1.4.2.5.1zM37.7 50.9c-.1-.1-.4 0-.5.1-.1.2-.1.3-.1.6 0 0 .1.2.2.2h.2c.2-.1.3-.3.3-.5.1-.2 0-.3-.1-.4zM37.8 41.4c-.1-.1-.2 0-.3.1-.2.2-.2.4-.1.6 0 .1.2.2.3.1.2-.1.3-.3.3-.6l-.2-.2zM72.4 78.4c-.1 0-.2.1-.2.1-.1.1-.1.2-.1.4.1.2.2.3.4.2.1 0 .2-.1.2-.1.2-.3 0-.6-.3-.6zM54.6 39.9c.1 0 .3-.2.3-.4s-.1-.3-.3-.4c-.2 0-.4.2-.4.4s.2.4.4.4zM65.8 66.7c-.2 0-.2.1-.2.2 0 .2.2.3.3.3.1-.1.2-.2.2-.3-.1-.1-.2-.2-.3-.2z"></path><path d="M43.9 54.6c-.1-.1-.2-.1-.4-.1-.4 0-.7.3-.9.7v.1c0 .1.2.3.3.2.1 0 .2 0 .2-.1.2-.1.4-.3.6-.5.2 0 .2-.2.2-.3zM53.8 56c-.1 0-.2.1-.2.3v.4c0 .1.2.2.3.2.1 0 .2-.1.2-.1 0-.1.1-.2.1-.2 0-.1 0-.2-.1-.3-.1-.2-.2-.3-.3-.3zM55 54.3c-.1.1-.2.3-.1.4 0 .1.1.1.2.1.2 0 .4-.1.4-.4v-.1s-.3-.1-.5 0z"></path></g><defs data-v-fde0c5aa=""><!----></defs><g data-v-fde0c5aa="" id="547c54cf-7a8f-49f9-a86a-4781b166336f" fill="#D1A103" transform="matrix(0.29662671285494263,0,0,0.29662671285494263,118.44082694092968,171.50797348601412)"><path d="M6.43 9.91C6.29 9.65 6.09 9.39 5.85 9.21C5.61 9.03 5.36 8.88 5.07 8.75C4.77 8.62 4.45 8.51 4.14 8.41C3.84 8.32 3.53 8.20 3.23 8.11C2.94 7.99 2.67 7.87 2.44 7.71C2.20 7.56 2.02 7.38 1.88 7.15C1.74 6.93 1.65 6.65 1.65 6.31C1.65 6.06 1.71 5.82 1.81 5.59C1.90 5.35 2.04 5.15 2.23 4.97C2.41 4.79 2.63 4.65 2.91 4.55C3.19 4.45 3.50 4.40 3.86 4.40C4.54 4.40 5.15 4.51 5.71 4.75C5.75 5.54 5.78 5.99 5.78 6.06C5.80 6.29 5.88 6.41 6.08 6.41L6.41 6.41L6.41 4.38C5.53 4.00 4.69 3.81 3.86 3.81C3.40 3.81 3.00 3.88 2.63 4.02C2.27 4.16 1.97 4.34 1.74 4.58C1.50 4.82 1.30 5.08 1.18 5.39C1.05 5.70 0.99 6.02 0.99 6.36C0.99 6.78 1.06 7.14 1.20 7.42C1.34 7.70 1.54 7.92 1.78 8.12C2.02 8.32 2.27 8.46 2.56 8.58C2.86 8.71 3.18 8.82 3.49 8.92C3.79 9.02 4.09 9.11 4.40 9.21C4.69 9.31 4.96 9.45 5.19 9.60C5.43 9.76 5.61 9.94 5.75 10.16C5.89 10.39 5.96 10.68 5.96 11.03C5.96 11.35 5.91 11.66 5.80 11.94C5.68 12.22 5.53 12.46 5.32 12.67C5.11 12.88 4.84 13.05 4.54 13.16C4.23 13.29 3.88 13.33 3.49 13.33C2.70 13.33 2.04 13.20 1.51 12.95C1.50 12.75 1.50 12.54 1.48 12.32C1.47 12.10 1.47 11.91 1.46 11.76C1.44 11.61 1.44 11.52 1.44 11.51C1.43 11.28 1.33 11.17 1.13 11.17L0.80 11.17L0.80 13.02L0.80 13.20L0.80 13.38C1.65 13.75 2.53 13.93 3.46 13.93C3.96 13.93 4.41 13.85 4.80 13.69C5.19 13.54 5.53 13.31 5.80 13.05C6.06 12.78 6.29 12.46 6.43 12.10C6.57 11.73 6.64 11.34 6.64 10.92C6.64 10.51 6.57 10.18 6.43 9.91ZM24.63 4.44C24.81 4.42 24.91 4.34 24.91 4.19L24.91 3.92L23.73 3.92L23.00 3.92L21.83 3.92L21.83 4.19C21.83 4.34 21.92 4.42 22.11 4.44L22.23 4.44C22.30 4.44 22.41 4.45 22.55 4.45C22.69 4.45 22.83 4.47 23.00 4.47L23.00 8.53L16.80 8.53L16.80 4.47C16.97 4.47 17.12 4.45 17.26 4.45C17.40 4.45 17.50 4.44 17.57 4.44L17.71 4.44C17.89 4.42 17.98 4.34 17.98 4.19L17.98 3.92L16.80 3.92L16.09 3.92L14.90 3.92L14.90 4.19C14.90 4.34 14.99 4.42 15.18 4.44L15.32 4.44C15.39 4.44 15.48 4.45 15.62 4.45C15.76 4.45 15.92 4.47 16.09 4.47L16.09 13.26C15.92 13.26 15.76 13.27 15.62 13.27C15.48 13.27 15.39 13.29 15.32 13.29L15.18 13.29C14.99 13.30 14.90 13.38 14.90 13.54L14.90 13.82L16.09 13.82L16.80 13.82L17.98 13.82L17.98 13.54C17.98 13.38 17.89 13.30 17.71 13.29L17.57 13.29C17.50 13.29 17.40 13.27 17.26 13.27C17.12 13.27 16.97 13.26 16.80 13.26L16.80 9.07L23.00 9.07L23.00 13.26C22.83 13.26 22.69 13.27 22.55 13.27C22.41 13.27 22.30 13.29 22.23 13.29L22.11 13.29C21.92 13.30 21.83 13.38 21.83 13.54L21.83 13.82L23.00 13.82L23.73 13.82L24.91 13.82L24.91 13.54C24.91 13.38 24.81 13.30 24.63 13.29L24.50 13.29C24.43 13.29 24.32 13.27 24.18 13.27C24.04 13.27 23.90 13.26 23.73 13.26L23.73 4.47C23.90 4.47 24.04 4.45 24.18 4.45C24.32 4.45 24.43 4.44 24.50 4.44ZM42.52 8.86C42.52 8.11 42.39 7.41 42.17 6.79C41.94 6.17 41.62 5.64 41.20 5.19C40.78 4.75 40.29 4.40 39.72 4.16C39.14 3.92 38.49 3.79 37.79 3.79C37.09 3.79 36.46 3.92 35.88 4.16C35.31 4.40 34.80 4.75 34.38 5.19C33.96 5.64 33.64 6.17 33.42 6.79C33.19 7.41 33.07 8.11 33.07 8.86C33.07 9.63 33.19 10.33 33.42 10.95C33.64 11.56 33.96 12.10 34.38 12.54C34.80 12.99 35.31 13.33 35.88 13.57C36.46 13.80 37.09 13.93 37.79 13.93C38.49 13.93 39.14 13.80 39.72 13.57C40.29 13.33 40.78 12.99 41.20 12.54C41.62 12.10 41.94 11.56 42.17 10.95C42.39 10.33 42.52 9.63 42.52 8.86ZM41.76 8.86C41.76 9.56 41.68 10.18 41.48 10.72C41.29 11.27 41.02 11.75 40.67 12.12C40.32 12.50 39.90 12.81 39.41 13.01C38.92 13.20 38.39 13.30 37.79 13.30C37.20 13.30 36.67 13.20 36.18 13.01C35.69 12.81 35.27 12.50 34.92 12.12C34.57 11.75 34.29 11.27 34.09 10.72C33.89 10.18 33.81 9.56 33.81 8.86C33.81 8.18 33.89 7.55 34.09 7.00C34.29 6.45 34.57 5.98 34.92 5.60C35.27 5.22 35.69 4.91 36.18 4.72C36.67 4.52 37.20 4.41 37.79 4.41C38.39 4.41 38.92 4.52 39.41 4.72C39.90 4.91 40.32 5.22 40.67 5.60C41.02 5.98 41.29 6.45 41.48 7.00C41.68 7.55 41.76 8.18 41.76 8.86ZM57.02 4.68C56.43 4.17 55.55 3.92 54.39 3.92L51.98 3.92L50.79 3.92L50.79 4.19C50.79 4.34 50.89 4.42 51.07 4.44L51.21 4.44C51.28 4.44 51.38 4.45 51.52 4.45C51.66 4.45 51.81 4.47 51.98 4.47L51.98 13.26C51.81 13.26 51.66 13.27 51.52 13.27C51.38 13.27 51.28 13.29 51.21 13.29L51.07 13.29C50.89 13.30 50.79 13.38 50.79 13.54L50.79 13.82L51.98 13.82L52.70 13.82L53.87 13.82L53.87 13.54C53.87 13.38 53.77 13.30 53.59 13.29L53.47 13.29C53.40 13.29 53.28 13.27 53.14 13.27C53.00 13.27 52.86 13.26 52.70 13.26L52.70 9.83L54.39 9.83C54.94 9.83 55.43 9.74 55.86 9.60C56.29 9.45 56.66 9.25 56.97 8.99C57.27 8.72 57.51 8.41 57.67 8.05C57.83 7.69 57.90 7.29 57.90 6.86C57.90 5.92 57.61 5.18 57.02 4.68ZM56.99 7.81C56.87 8.11 56.69 8.36 56.45 8.57C56.21 8.78 55.92 8.95 55.57 9.07C55.22 9.20 54.82 9.25 54.39 9.25L52.70 9.25L52.70 4.48L54.39 4.48C55.31 4.48 56.01 4.69 56.49 5.10C56.95 5.50 57.19 6.09 57.19 6.85C57.19 7.20 57.12 7.52 56.99 7.81ZM90.27 3.92L89.73 3.92L89.68 3.92L88.21 3.92L88.21 4.19C88.21 4.34 88.30 4.42 88.48 4.44L88.61 4.44C88.66 4.44 88.76 4.45 88.90 4.45C89.04 4.45 89.18 4.47 89.35 4.47L86.97 12.24C86.94 12.33 86.91 12.43 86.90 12.54C86.88 12.66 86.86 12.75 86.83 12.87C86.80 12.75 86.79 12.63 86.76 12.53L86.67 12.24L83.87 4.10C83.85 4.05 83.82 3.99 83.78 3.96C83.73 3.93 83.68 3.92 83.61 3.92L83.41 3.92C83.34 3.92 83.29 3.93 83.24 3.98C83.20 4.02 83.16 4.05 83.15 4.10L80.35 12.25C80.32 12.35 80.29 12.43 80.26 12.54C80.23 12.64 80.22 12.75 80.19 12.88C80.18 12.78 80.15 12.67 80.12 12.54C80.11 12.43 80.08 12.33 80.05 12.24L77.67 4.47C77.84 4.47 77.98 4.45 78.11 4.45C78.23 4.45 78.32 4.44 78.37 4.44L78.48 4.44C78.67 4.42 78.76 4.34 78.76 4.19L78.76 3.92L77.29 3.92L76.71 3.92L76.10 3.92L76.10 4.19C76.10 4.34 76.20 4.42 76.38 4.44L76.48 4.44C76.52 4.44 76.57 4.45 76.64 4.45C76.71 4.45 76.79 4.47 76.87 4.47L79.83 13.82L80.46 13.82L83.40 5.22C83.44 5.11 83.47 5.00 83.50 4.87C83.52 5.00 83.55 5.11 83.59 5.22L86.52 13.82L87.16 13.82L90.10 4.47C90.19 4.47 90.26 4.45 90.33 4.45C90.40 4.45 90.45 4.44 90.50 4.44L90.59 4.44C90.78 4.42 90.86 4.34 90.86 4.19L90.86 3.92ZM101.72 4.44C101.91 4.42 101.99 4.34 101.99 4.19L101.99 3.91L100.81 3.91L100.10 3.91L98.91 3.91L98.91 4.19C98.91 4.34 99.01 4.42 99.19 4.44L99.33 4.44C99.40 4.44 99.50 4.45 99.64 4.45C99.78 4.45 99.93 4.47 100.10 4.47L100.10 13.26C99.93 13.26 99.78 13.27 99.64 13.27C99.50 13.27 99.40 13.29 99.33 13.29L99.19 13.29C99.01 13.30 98.91 13.38 98.91 13.54L98.91 13.82L100.10 13.82L100.81 13.82L101.99 13.82L101.99 13.54C101.99 13.38 101.91 13.30 101.72 13.29L101.58 13.29C101.51 13.29 101.42 13.27 101.28 13.27C101.14 13.27 100.98 13.26 100.81 13.26L100.81 4.47C100.98 4.47 101.14 4.45 101.28 4.45C101.42 4.45 101.51 4.44 101.58 4.44ZM117.85 3.92L117.66 3.92L110.36 3.92L110.15 3.92L110.05 3.92L110.05 5.96L110.40 5.96C110.60 5.96 110.68 5.85 110.70 5.63C110.70 5.53 110.73 5.17 110.75 4.52L113.65 4.52L113.65 13.26C113.48 13.26 113.34 13.27 113.20 13.27C113.06 13.27 112.95 13.29 112.88 13.29L112.76 13.29C112.57 13.30 112.48 13.38 112.48 13.54L112.48 13.82L113.65 13.82L114.37 13.82L115.56 13.82L115.56 13.54C115.56 13.38 115.46 13.30 115.28 13.29L115.14 13.29C115.07 13.29 114.97 13.27 114.83 13.27C114.69 13.27 114.53 13.26 114.37 13.26L114.37 4.52L117.25 4.52C117.29 5.24 117.31 5.60 117.31 5.63C117.32 5.85 117.42 5.96 117.61 5.96L117.95 5.96L117.95 3.92ZM135.79 4.44C135.97 4.42 136.07 4.34 136.07 4.19L136.07 3.92L134.89 3.92L134.16 3.92L132.99 3.92L132.99 4.19C132.99 4.34 133.08 4.42 133.27 4.44L133.39 4.44C133.46 4.44 133.57 4.45 133.71 4.45C133.85 4.45 133.99 4.47 134.16 4.47L134.16 8.53L127.96 8.53L127.96 4.47C128.13 4.47 128.28 4.45 128.42 4.45C128.56 4.45 128.66 4.44 128.73 4.44L128.87 4.44C129.05 4.42 129.14 4.34 129.14 4.19L129.14 3.92L127.96 3.92L127.25 3.92L126.06 3.92L126.06 4.19C126.06 4.34 126.15 4.42 126.34 4.44L126.48 4.44C126.55 4.44 126.64 4.45 126.78 4.45C126.92 4.45 127.08 4.47 127.25 4.47L127.25 13.26C127.08 13.26 126.92 13.27 126.78 13.27C126.64 13.27 126.55 13.29 126.48 13.29L126.34 13.29C126.15 13.30 126.06 13.38 126.06 13.54L126.06 13.82L127.25 13.82L127.96 13.82L129.14 13.82L129.14 13.54C129.14 13.38 129.05 13.30 128.87 13.29L128.73 13.29C128.66 13.29 128.56 13.27 128.42 13.27C128.28 13.27 128.13 13.26 127.96 13.26L127.96 9.07L134.16 9.07L134.16 13.26C133.99 13.26 133.85 13.27 133.71 13.27C133.57 13.27 133.46 13.29 133.39 13.29L133.27 13.29C133.08 13.30 132.99 13.38 132.99 13.54L132.99 13.82L134.16 13.82L134.89 13.82L136.07 13.82L136.07 13.54C136.07 13.38 135.97 13.30 135.79 13.29L135.66 13.29C135.59 13.29 135.48 13.27 135.34 13.27C135.20 13.27 135.06 13.26 134.89 13.26L134.89 4.47C135.06 4.47 135.20 4.45 135.34 4.45C135.48 4.45 135.59 4.44 135.66 4.44ZM155.97 3.92L154.78 3.92L154.78 4.19C154.78 4.34 154.88 4.42 155.06 4.44L155.20 4.44C155.27 4.44 155.37 4.45 155.51 4.45C155.65 4.45 155.81 4.47 155.97 4.47L155.97 13.26C155.81 13.26 155.65 13.27 155.51 13.27C155.37 13.27 155.27 13.29 155.20 13.29L155.06 13.29C154.88 13.30 154.80 13.38 154.80 13.54L154.80 13.82L155.97 13.82L161.91 13.82L161.91 13.22L161.91 11.76L161.56 11.76C161.36 11.76 161.28 11.89 161.27 12.11C161.27 12.14 161.25 12.19 161.25 12.29C161.25 12.39 161.25 12.53 161.24 12.74C161.22 12.95 161.21 13.09 161.21 13.22L156.69 13.22L156.69 9.09L160.64 9.09L160.64 8.51L156.69 8.51L156.69 4.51L161.21 4.51C161.24 5.12 161.27 5.50 161.27 5.63C161.28 5.85 161.36 5.96 161.56 5.96L161.91 5.96L161.91 4.51L161.91 3.92ZM179.79 13.22L179.33 13.17L175.55 3.91L174.83 3.91L171.04 13.17L170.59 13.22C170.41 13.23 170.32 13.33 170.32 13.50L170.32 13.82L170.77 13.82L171.07 13.82L171.32 13.82L171.42 13.82L172.73 13.82L172.73 13.50C172.73 13.31 172.62 13.23 172.41 13.22C172.40 13.22 172.37 13.20 172.33 13.20C172.28 13.20 172.23 13.19 172.13 13.19C172.03 13.19 171.91 13.19 171.77 13.17L172.75 10.75L172.82 10.57L177.55 10.57L177.62 10.75L178.60 13.17C178.46 13.19 178.35 13.19 178.25 13.19C178.15 13.19 178.08 13.20 178.04 13.20C178.00 13.20 177.97 13.22 177.95 13.22C177.74 13.23 177.63 13.31 177.63 13.50L177.63 13.82L178.95 13.82L179.05 13.82L179.31 13.82L179.59 13.82L180.05 13.82L180.05 13.50C180.05 13.33 179.97 13.23 179.79 13.22ZM174.99 5.22C175.01 5.14 175.06 5.04 175.08 4.94C175.11 4.84 175.15 4.75 175.18 4.63C175.21 4.75 175.25 4.84 175.28 4.94C175.31 5.04 175.35 5.12 175.38 5.21L177.34 10.04L173.04 10.04ZM194.01 9.91C193.87 9.65 193.68 9.39 193.44 9.21C193.20 9.03 192.95 8.88 192.65 8.75C192.36 8.62 192.04 8.51 191.73 8.41C191.42 8.32 191.11 8.20 190.82 8.11C190.53 7.99 190.26 7.87 190.02 7.71C189.78 7.56 189.60 7.38 189.46 7.15C189.32 6.93 189.24 6.65 189.24 6.31C189.24 6.06 189.29 5.82 189.39 5.59C189.49 5.35 189.63 5.15 189.81 4.97C189.99 4.79 190.22 4.65 190.50 4.55C190.78 4.45 191.09 4.40 191.45 4.40C192.12 4.40 192.74 4.51 193.30 4.75C193.34 5.54 193.37 5.99 193.37 6.06C193.38 6.29 193.47 6.41 193.66 6.41L194.00 6.41L194.00 4.38C193.12 4.00 192.28 3.81 191.45 3.81C190.99 3.81 190.58 3.88 190.22 4.02C189.85 4.16 189.56 4.34 189.32 4.58C189.08 4.82 188.89 5.08 188.76 5.39C188.64 5.70 188.58 6.02 188.58 6.36C188.58 6.78 188.65 7.14 188.79 7.42C188.93 7.70 189.13 7.92 189.36 8.12C189.60 8.32 189.85 8.46 190.15 8.58C190.44 8.71 190.76 8.82 191.07 8.92C191.38 9.02 191.67 9.11 191.98 9.21C192.28 9.31 192.54 9.45 192.78 9.60C193.02 9.76 193.20 9.94 193.34 10.16C193.48 10.39 193.55 10.68 193.55 11.03C193.55 11.35 193.49 11.66 193.38 11.94C193.27 12.22 193.12 12.46 192.91 12.67C192.70 12.88 192.43 13.05 192.12 13.16C191.81 13.29 191.46 13.33 191.07 13.33C190.29 13.33 189.63 13.20 189.10 12.95C189.08 12.75 189.08 12.54 189.07 12.32C189.06 12.10 189.06 11.91 189.04 11.76C189.03 11.61 189.03 11.52 189.03 11.51C189.01 11.28 188.92 11.17 188.72 11.17L188.38 11.17L188.38 13.02L188.38 13.20L188.38 13.38C189.24 13.75 190.12 13.93 191.04 13.93C191.55 13.93 192.00 13.85 192.39 13.69C192.78 13.54 193.12 13.31 193.38 13.05C193.65 12.78 193.87 12.46 194.01 12.10C194.15 11.73 194.22 11.34 194.22 10.92C194.22 10.51 194.15 10.18 194.01 9.91ZM203.67 3.92L202.48 3.92L202.48 4.19C202.48 4.34 202.58 4.42 202.76 4.44L202.90 4.44C202.97 4.44 203.07 4.45 203.21 4.45C203.35 4.45 203.50 4.47 203.67 4.47L203.67 13.26C203.50 13.26 203.35 13.27 203.21 13.27C203.07 13.27 202.97 13.29 202.90 13.29L202.76 13.29C202.58 13.30 202.50 13.38 202.50 13.54L202.50 13.82L203.67 13.82L209.61 13.82L209.61 13.22L209.61 11.76L209.26 11.76C209.06 11.76 208.98 11.89 208.96 12.11C208.96 12.14 208.95 12.19 208.95 12.29C208.95 12.39 208.95 12.53 208.94 12.74C208.92 12.95 208.91 13.09 208.91 13.22L204.39 13.22L204.39 9.09L208.33 9.09L208.33 8.51L204.39 8.51L204.39 4.51L208.91 4.51C208.94 5.12 208.96 5.50 208.96 5.63C208.98 5.85 209.06 5.96 209.26 5.96L209.61 5.96L209.61 4.51L209.61 3.92ZM228.87 13.23C228.87 13.41 228.91 13.57 229.03 13.68C229.14 13.79 229.29 13.85 229.46 13.85L229.57 13.85C229.60 13.85 229.63 13.83 229.66 13.82C229.64 13.99 229.60 14.14 229.54 14.29C229.49 14.45 229.42 14.57 229.35 14.70C229.28 14.83 229.21 14.94 229.14 15.02C229.07 15.11 229.00 15.19 228.96 15.23C228.94 15.25 228.93 15.27 228.91 15.30C228.90 15.33 228.89 15.33 228.89 15.36C228.89 15.40 228.90 15.44 228.94 15.48L229.05 15.58C229.21 15.43 229.36 15.29 229.49 15.11C229.61 14.92 229.73 14.74 229.82 14.55C229.92 14.35 229.98 14.15 230.03 13.96C230.09 13.76 230.10 13.58 230.10 13.38C230.10 13.16 230.05 12.98 229.94 12.84C229.82 12.70 229.67 12.63 229.47 12.63C229.29 12.63 229.15 12.70 229.04 12.81C228.93 12.92 228.87 13.06 228.87 13.23ZM258.40 8.86C258.40 8.11 258.27 7.41 258.05 6.79C257.82 6.17 257.50 5.64 257.08 5.19C256.66 4.75 256.17 4.40 255.60 4.16C255.02 3.92 254.37 3.79 253.67 3.79C252.97 3.79 252.34 3.92 251.76 4.16C251.19 4.40 250.68 4.75 250.26 5.19C249.84 5.64 249.52 6.17 249.30 6.79C249.07 7.41 248.95 8.11 248.95 8.86C248.95 9.63 249.07 10.33 249.30 10.95C249.52 11.56 249.84 12.10 250.26 12.54C250.68 12.99 251.19 13.33 251.76 13.57C252.34 13.80 252.97 13.93 253.67 13.93C254.37 13.93 255.02 13.80 255.60 13.57C256.17 13.33 256.66 12.99 257.08 12.54C257.50 12.10 257.82 11.56 258.05 10.95C258.27 10.33 258.40 9.63 258.40 8.86ZM257.64 8.86C257.64 9.56 257.56 10.18 257.36 10.72C257.17 11.27 256.90 11.75 256.55 12.12C256.20 12.50 255.78 12.81 255.29 13.01C254.80 13.20 254.27 13.30 253.67 13.30C253.08 13.30 252.55 13.20 252.06 13.01C251.57 12.81 251.15 12.50 250.80 12.12C250.45 11.75 250.17 11.27 249.97 10.72C249.77 10.18 249.69 9.56 249.69 8.86C249.69 8.18 249.77 7.55 249.97 7.00C250.17 6.45 250.45 5.98 250.80 5.60C251.15 5.22 251.57 4.91 252.06 4.72C252.55 4.52 253.08 4.41 253.67 4.41C254.27 4.41 254.80 4.52 255.29 4.72C255.78 4.91 256.20 5.22 256.55 5.60C256.90 5.98 257.17 6.45 257.36 7.00C257.56 7.55 257.64 8.18 257.64 8.86ZM275.23 3.92L274.60 3.92L273.38 3.92L273.38 4.19C273.38 4.34 273.48 4.42 273.66 4.44L273.80 4.44C273.87 4.44 273.98 4.45 274.12 4.45C274.26 4.45 274.43 4.47 274.60 4.47L274.60 12.22C274.60 12.35 274.60 12.49 274.61 12.63L268.20 4.05C268.16 3.99 268.13 3.95 268.09 3.93C268.04 3.92 268.00 3.91 267.93 3.91L267.58 3.91L266.39 3.91L266.39 4.19C266.39 4.34 266.49 4.42 266.67 4.44L266.81 4.44C266.88 4.44 266.98 4.45 267.12 4.45C267.26 4.45 267.41 4.47 267.58 4.47L267.58 13.26C267.41 13.26 267.26 13.27 267.12 13.27C266.98 13.27 266.88 13.29 266.81 13.29L266.67 13.29C266.49 13.30 266.39 13.38 266.39 13.54L266.39 13.82L267.58 13.82L268.20 13.82L269.42 13.82L269.42 13.54C269.42 13.38 269.32 13.30 269.14 13.29L269.00 13.29C268.93 13.29 268.80 13.27 268.66 13.27C268.52 13.27 268.37 13.26 268.20 13.26L268.20 5.49C268.20 5.36 268.20 5.22 268.18 5.08L274.62 13.68C274.69 13.78 274.76 13.82 274.88 13.82L275.23 13.82L275.23 4.47C275.39 4.47 275.53 4.45 275.67 4.45C275.81 4.45 275.93 4.44 276.00 4.44L276.12 4.44C276.30 4.42 276.40 4.34 276.40 4.19L276.40 3.92ZM290.81 11.97C290.61 11.97 290.53 12.08 290.51 12.31C290.51 12.32 290.51 12.38 290.50 12.43C290.49 12.49 290.49 12.59 290.47 12.71C290.46 12.84 290.44 13.01 290.43 13.20L286.34 13.20L286.34 4.47C286.51 4.47 286.65 4.45 286.79 4.45C286.93 4.45 287.04 4.44 287.11 4.44L287.24 4.44C287.42 4.42 287.52 4.34 287.52 4.19L287.52 3.92L286.34 3.92L285.63 3.92L284.44 3.92L284.44 4.19C284.44 4.34 284.54 4.42 284.72 4.44L284.86 4.44C284.93 4.44 285.03 4.45 285.17 4.45C285.31 4.45 285.46 4.47 285.63 4.47L285.63 13.26C285.46 13.26 285.31 13.27 285.17 13.27C285.03 13.27 284.93 13.29 284.86 13.29L284.72 13.29C284.54 13.30 284.44 13.38 284.44 13.54L284.44 13.82L285.63 13.82L290.91 13.82L291.03 13.82L291.16 13.82L291.16 13.55L291.16 12.99L291.16 11.97L290.88 11.97ZM306.35 3.92L306.28 3.92L305.72 3.92L305.61 3.92L304.21 3.92L304.21 4.19C304.21 4.34 304.30 4.42 304.49 4.44L304.60 4.44C304.65 4.44 304.72 4.45 304.84 4.45C304.95 4.45 305.07 4.47 305.21 4.47L302.62 8.64C302.55 8.75 302.50 8.85 302.46 8.95C302.41 9.04 302.37 9.16 302.33 9.25C302.29 9.16 302.25 9.04 302.20 8.95C302.16 8.85 302.11 8.75 302.04 8.64L299.43 4.47C299.57 4.47 299.70 4.45 299.81 4.45C299.92 4.45 300.01 4.44 300.06 4.44L300.16 4.44C300.34 4.42 300.44 4.34 300.44 4.19L300.44 3.92L299.04 3.92L298.93 3.92L298.37 3.92L298.30 3.92L297.85 3.92L297.85 4.19C297.85 4.34 297.95 4.42 298.13 4.44C298.37 4.45 298.55 4.47 298.65 4.47L301.97 9.73L301.97 13.26C301.80 13.26 301.64 13.27 301.50 13.27C301.36 13.27 301.27 13.29 301.20 13.29L301.07 13.29C300.89 13.30 300.79 13.38 300.79 13.54L300.79 13.82L301.97 13.82L302.68 13.82L303.86 13.82L303.86 13.54C303.86 13.38 303.77 13.30 303.59 13.29L303.45 13.29C303.38 13.29 303.28 13.27 303.14 13.27C303.00 13.27 302.85 13.26 302.68 13.26L302.68 9.73L306.00 4.47C306.11 4.47 306.28 4.45 306.52 4.44C306.70 4.42 306.80 4.34 306.80 4.19L306.80 3.92ZM334.47 8.86C334.47 8.11 334.35 7.41 334.12 6.79C333.90 6.17 333.58 5.64 333.16 5.19C332.74 4.75 332.25 4.40 331.67 4.16C331.10 3.92 330.44 3.79 329.74 3.79C329.04 3.79 328.41 3.92 327.84 4.16C327.26 4.40 326.76 4.75 326.34 5.19C325.92 5.64 325.60 6.17 325.37 6.79C325.15 7.41 325.02 8.11 325.02 8.86C325.02 9.63 325.15 10.33 325.37 10.95C325.60 11.56 325.92 12.10 326.34 12.54C326.76 12.99 327.26 13.33 327.84 13.57C328.41 13.80 329.04 13.93 329.74 13.93C330.44 13.93 331.10 13.80 331.67 13.57C332.25 13.33 332.74 12.99 333.16 12.54C333.58 12.10 333.90 11.56 334.12 10.95C334.35 10.33 334.47 9.63 334.47 8.86ZM333.72 8.86C333.72 9.56 333.63 10.18 333.44 10.72C333.24 11.27 332.98 11.75 332.63 12.12C332.28 12.50 331.86 12.81 331.37 13.01C330.88 13.20 330.34 13.30 329.74 13.30C329.15 13.30 328.62 13.20 328.13 13.01C327.64 12.81 327.22 12.50 326.87 12.12C326.52 11.75 326.24 11.27 326.05 10.72C325.85 10.18 325.77 9.56 325.77 8.86C325.77 8.18 325.85 7.55 326.05 7.00C326.24 6.45 326.52 5.98 326.87 5.60C327.22 5.22 327.64 4.91 328.13 4.72C328.62 4.52 329.15 4.41 329.74 4.41C330.34 4.41 330.88 4.52 331.37 4.72C331.86 4.91 332.28 5.22 332.63 5.60C332.98 5.98 333.24 6.45 333.44 7.00C333.63 7.55 333.72 8.18 333.72 8.86ZM351.30 3.92L350.67 3.92L349.45 3.92L349.45 4.19C349.45 4.34 349.55 4.42 349.73 4.44L349.87 4.44C349.94 4.44 350.06 4.45 350.20 4.45C350.34 4.45 350.50 4.47 350.67 4.47L350.67 12.22C350.67 12.35 350.67 12.49 350.69 12.63L344.27 4.05C344.23 3.99 344.20 3.95 344.16 3.93C344.12 3.92 344.08 3.91 344.01 3.91L343.66 3.91L342.47 3.91L342.47 4.19C342.47 4.34 342.57 4.42 342.75 4.44L342.89 4.44C342.96 4.44 343.06 4.45 343.20 4.45C343.34 4.45 343.49 4.47 343.66 4.47L343.66 13.26C343.49 13.26 343.34 13.27 343.20 13.27C343.06 13.27 342.96 13.29 342.89 13.29L342.75 13.29C342.57 13.30 342.47 13.38 342.47 13.54L342.47 13.82L343.66 13.82L344.27 13.82L345.49 13.82L345.49 13.54C345.49 13.38 345.39 13.30 345.21 13.29L345.07 13.29C345.00 13.29 344.88 13.27 344.74 13.27C344.60 13.27 344.44 13.26 344.27 13.26L344.27 5.49C344.27 5.36 344.27 5.22 344.26 5.08L350.70 13.68C350.77 13.78 350.84 13.82 350.95 13.82L351.30 13.82L351.30 4.47C351.47 4.47 351.61 4.45 351.75 4.45C351.89 4.45 352.00 4.44 352.07 4.44L352.20 4.44C352.38 4.42 352.48 4.34 352.48 4.19L352.48 3.92ZM378.00 9.52C377.58 9.11 376.98 8.86 376.19 8.75C376.52 8.67 376.80 8.55 377.05 8.40C377.30 8.25 377.52 8.08 377.69 7.87C377.86 7.66 378.00 7.43 378.08 7.20C378.17 6.96 378.22 6.71 378.22 6.44C378.22 6.05 378.14 5.68 378.01 5.38C377.89 5.07 377.68 4.80 377.41 4.58C377.15 4.37 376.81 4.20 376.39 4.09C375.97 3.98 375.48 3.92 374.92 3.92L372.08 3.92L370.89 3.92L370.89 4.19C370.89 4.34 370.99 4.42 371.17 4.44L371.31 4.44C371.38 4.44 371.48 4.45 371.62 4.45C371.76 4.45 371.91 4.47 372.08 4.47L372.08 13.26C371.91 13.26 371.76 13.27 371.62 13.27C371.48 13.27 371.38 13.29 371.31 13.29L371.17 13.29C370.99 13.30 370.90 13.38 370.90 13.54L370.90 13.82L372.08 13.82L375.28 13.82C375.82 13.82 376.28 13.76 376.70 13.64C377.12 13.51 377.47 13.34 377.75 13.10C378.03 12.87 378.25 12.59 378.41 12.25C378.56 11.91 378.63 11.54 378.63 11.12C378.63 10.46 378.42 9.93 378.00 9.52ZM372.79 4.48L374.92 4.48C375.80 4.48 376.46 4.66 376.88 5.00C377.30 5.35 377.51 5.84 377.51 6.51C377.51 6.76 377.47 7.03 377.37 7.27C377.27 7.50 377.12 7.71 376.91 7.91C376.70 8.11 376.43 8.26 376.11 8.37C375.79 8.48 375.40 8.55 374.93 8.55L372.79 8.55ZM377.24 12.68C376.80 13.06 376.14 13.24 375.27 13.24L372.79 13.24L372.79 9.07L375.28 9.07C375.70 9.07 376.07 9.11 376.39 9.21C376.71 9.31 376.99 9.45 377.22 9.62C377.44 9.80 377.61 10.00 377.73 10.25C377.85 10.50 377.92 10.79 377.92 11.10C377.92 11.79 377.69 12.31 377.24 12.68ZM395.14 3.92L394.42 3.92L393.06 3.92L393.06 4.19C393.06 4.34 393.16 4.42 393.34 4.44L393.51 4.44C393.61 4.44 393.75 4.45 393.92 4.45C394.09 4.45 394.25 4.47 394.42 4.47L394.42 10.04C394.42 10.50 394.35 10.92 394.21 11.33C394.07 11.73 393.88 12.08 393.61 12.38C393.34 12.67 393.04 12.89 392.66 13.06C392.28 13.23 391.86 13.31 391.38 13.31C390.91 13.31 390.47 13.23 390.10 13.06C389.72 12.89 389.40 12.66 389.14 12.36C388.88 12.07 388.70 11.72 388.56 11.33C388.42 10.93 388.35 10.50 388.35 10.04L388.35 4.47C388.51 4.47 388.68 4.45 388.85 4.45C389.02 4.45 389.16 4.44 389.26 4.44L389.42 4.44C389.61 4.42 389.70 4.34 389.70 4.19L389.70 3.92L388.35 3.92L387.63 3.92L386.46 3.92L386.46 4.19C386.46 4.34 386.54 4.42 386.72 4.44L386.86 4.44C386.93 4.44 387.03 4.45 387.17 4.45C387.31 4.45 387.46 4.47 387.63 4.47L387.63 10.04C387.63 10.58 387.72 11.09 387.88 11.56C388.05 12.04 388.30 12.46 388.63 12.81C388.95 13.16 389.35 13.44 389.82 13.64C390.28 13.83 390.81 13.93 391.38 13.93C391.96 13.93 392.48 13.83 392.94 13.64C393.40 13.44 393.81 13.16 394.13 12.81C394.45 12.46 394.70 12.04 394.87 11.56C395.04 11.09 395.14 10.58 395.14 10.04L395.14 4.47C395.30 4.47 395.44 4.45 395.58 4.45C395.72 4.45 395.84 4.44 395.91 4.44L396.03 4.44C396.21 4.42 396.31 4.34 396.31 4.19L396.31 3.92ZM412.47 3.92L412.40 3.92L411.84 3.92L411.73 3.92L410.33 3.92L410.33 4.19C410.33 4.34 410.42 4.42 410.61 4.44L410.72 4.44C410.77 4.44 410.84 4.45 410.96 4.45C411.07 4.45 411.19 4.47 411.33 4.47L408.74 8.64C408.67 8.75 408.62 8.85 408.58 8.95C408.53 9.04 408.49 9.16 408.45 9.25C408.41 9.16 408.37 9.04 408.32 8.95C408.28 8.85 408.23 8.75 408.16 8.64L405.55 4.47C405.69 4.47 405.82 4.45 405.93 4.45C406.04 4.45 406.13 4.44 406.18 4.44L406.28 4.44C406.46 4.42 406.56 4.34 406.56 4.19L406.56 3.92L405.16 3.92L405.05 3.92L404.49 3.92L404.42 3.92L403.97 3.92L403.97 4.19C403.97 4.34 404.07 4.42 404.25 4.44C404.49 4.45 404.67 4.47 404.77 4.47L408.09 9.73L408.09 13.26C407.92 13.26 407.76 13.27 407.62 13.27C407.48 13.27 407.39 13.29 407.32 13.29L407.19 13.29C407.01 13.30 406.91 13.38 406.91 13.54L406.91 13.82L408.09 13.82L408.80 13.82L409.98 13.82L409.98 13.54C409.98 13.38 409.89 13.30 409.71 13.29L409.57 13.29C409.50 13.29 409.40 13.27 409.26 13.27C409.12 13.27 408.97 13.26 408.80 13.26L408.80 9.73L412.12 4.47C412.23 4.47 412.40 4.45 412.64 4.44C412.82 4.42 412.92 4.34 412.92 4.19L412.92 3.92ZM422.14 3.92L420.95 3.92L420.95 4.19C420.95 4.34 421.05 4.42 421.23 4.44L421.37 4.44C421.44 4.44 421.54 4.45 421.68 4.45C421.82 4.45 421.97 4.47 422.14 4.47L422.14 13.26C421.97 13.26 421.82 13.27 421.68 13.27C421.54 13.27 421.44 13.29 421.37 13.29L421.23 13.29C421.05 13.30 420.97 13.38 420.97 13.54L420.97 13.82L422.14 13.82L428.08 13.82L428.08 13.22L428.08 11.76L427.73 11.76C427.53 11.76 427.45 11.89 427.43 12.11C427.43 12.14 427.42 12.19 427.42 12.29C427.42 12.39 427.42 12.53 427.41 12.74C427.39 12.95 427.38 13.09 427.38 13.22L422.86 13.22L422.86 9.09L426.80 9.09L426.80 8.51L422.86 8.51L422.86 4.51L427.38 4.51C427.41 5.12 427.43 5.50 427.43 5.63C427.45 5.85 427.53 5.96 427.73 5.96L428.08 5.96L428.08 4.51L428.08 3.92ZM445.96 13.22L445.49 13.17L441.71 3.91L441.00 3.91L437.21 13.17L436.76 13.22C436.58 13.23 436.49 13.33 436.49 13.50L436.49 13.82L436.94 13.82L437.23 13.82L437.49 13.82L437.58 13.82L438.90 13.82L438.90 13.50C438.90 13.31 438.79 13.23 438.58 13.22C438.56 13.22 438.54 13.20 438.49 13.20C438.45 13.20 438.40 13.19 438.30 13.19C438.20 13.19 438.07 13.19 437.93 13.17L438.91 10.75L438.98 10.57L443.72 10.57L443.79 10.75L444.77 13.17C444.63 13.19 444.51 13.19 444.42 13.19C444.32 13.19 444.25 13.20 444.21 13.20C444.16 13.20 444.14 13.22 444.12 13.22C443.91 13.23 443.80 13.31 443.80 13.50L443.80 13.82L445.12 13.82L445.21 13.82L445.48 13.82L445.76 13.82L446.22 13.82L446.22 13.50C446.22 13.33 446.14 13.23 445.96 13.22ZM441.15 5.22C441.18 5.14 441.22 5.04 441.25 4.94C441.28 4.84 441.32 4.75 441.35 4.63C441.38 4.75 441.42 4.84 441.45 4.94C441.48 5.04 441.52 5.12 441.55 5.21L443.51 10.04L439.21 10.04ZM460.18 9.91C460.04 9.65 459.84 9.39 459.61 9.21C459.37 9.03 459.12 8.88 458.82 8.75C458.53 8.62 458.21 8.51 457.90 8.41C457.59 8.32 457.28 8.20 456.99 8.11C456.69 7.99 456.43 7.87 456.19 7.71C455.95 7.56 455.77 7.38 455.63 7.15C455.49 6.93 455.41 6.65 455.41 6.31C455.41 6.06 455.46 5.82 455.56 5.59C455.66 5.35 455.80 5.15 455.98 4.97C456.16 4.79 456.39 4.65 456.67 4.55C456.95 4.45 457.25 4.40 457.62 4.40C458.29 4.40 458.91 4.51 459.47 4.75C459.51 5.54 459.54 5.99 459.54 6.06C459.55 6.29 459.63 6.41 459.83 6.41L460.17 6.41L460.17 4.38C459.28 4.00 458.44 3.81 457.62 3.81C457.16 3.81 456.75 3.88 456.39 4.02C456.02 4.16 455.73 4.34 455.49 4.58C455.25 4.82 455.06 5.08 454.93 5.39C454.80 5.70 454.75 6.02 454.75 6.36C454.75 6.78 454.82 7.14 454.96 7.42C455.10 7.70 455.29 7.92 455.53 8.12C455.77 8.32 456.02 8.46 456.32 8.58C456.61 8.71 456.93 8.82 457.24 8.92C457.55 9.02 457.84 9.11 458.15 9.21C458.44 9.31 458.71 9.45 458.95 9.60C459.19 9.76 459.37 9.94 459.51 10.16C459.65 10.39 459.72 10.68 459.72 11.03C459.72 11.35 459.66 11.66 459.55 11.94C459.44 12.22 459.28 12.46 459.07 12.67C458.86 12.88 458.60 13.05 458.29 13.16C457.98 13.29 457.63 13.33 457.24 13.33C456.46 13.33 455.80 13.20 455.27 12.95C455.25 12.75 455.25 12.54 455.24 12.32C455.22 12.10 455.22 11.91 455.21 11.76C455.20 11.61 455.20 11.52 455.20 11.51C455.18 11.28 455.08 11.17 454.89 11.17L454.55 11.17L454.55 13.02L454.55 13.20L454.55 13.38C455.41 13.75 456.29 13.93 457.21 13.93C457.72 13.93 458.16 13.85 458.56 13.69C458.95 13.54 459.28 13.31 459.55 13.05C459.82 12.78 460.04 12.46 460.18 12.10C460.32 11.73 460.39 11.34 460.39 10.92C460.39 10.51 460.32 10.18 460.18 9.91ZM476.78 3.92L476.71 3.92L476.15 3.92L476.04 3.92L474.64 3.92L474.64 4.19C474.64 4.34 474.74 4.42 474.92 4.44L475.03 4.44C475.09 4.44 475.16 4.45 475.27 4.45C475.38 4.45 475.51 4.47 475.65 4.47L473.06 8.64C472.99 8.75 472.93 8.85 472.89 8.95C472.85 9.04 472.81 9.16 472.77 9.25C472.72 9.16 472.68 9.04 472.64 8.95C472.60 8.85 472.54 8.75 472.47 8.64L469.87 4.47C470.01 4.47 470.13 4.45 470.25 4.45C470.36 4.45 470.44 4.44 470.50 4.44L470.60 4.44C470.78 4.42 470.88 4.34 470.88 4.19L470.88 3.92L469.48 3.92L469.36 3.92L468.80 3.92L468.73 3.92L468.29 3.92L468.29 4.19C468.29 4.34 468.38 4.42 468.57 4.44C468.80 4.45 468.99 4.47 469.08 4.47L472.40 9.73L472.40 13.26C472.23 13.26 472.08 13.27 471.94 13.27C471.80 13.27 471.70 13.29 471.63 13.29L471.51 13.29C471.32 13.30 471.23 13.38 471.23 13.54L471.23 13.82L472.40 13.82L473.12 13.82L474.29 13.82L474.29 13.54C474.29 13.38 474.21 13.30 474.03 13.29L473.89 13.29C473.82 13.29 473.72 13.27 473.58 13.27C473.44 13.27 473.28 13.26 473.12 13.26L473.12 9.73L476.43 4.47C476.55 4.47 476.71 4.45 476.95 4.44C477.13 4.42 477.23 4.34 477.23 4.19L477.23 3.92Z"></path></g></svg>