<svg data-v-fde0c5aa="" xmlns="http://www.w3.org/2000/svg" viewBox="0 0 300 300" class="font"><!----><defs data-v-fde0c5aa=""><!----></defs><rect data-v-fde0c5aa="" fill="#0B173D" x="0" y="0" width="300px" height="300px" class="logo-background-square"></rect><defs data-v-fde0c5aa=""><!----></defs><g data-v-fde0c5aa="" id="83e79ba5-0d57-4253-bcee-9bc46c7d030c" fill="#D1A103" transform="matrix(5.0331728530765645,0,0,5.0331728530765645,38.590711595138565,100.67490867985389)"><path d="M7.91 5.03C7.91 3.08 5.92 2.80 4.68 2.80C3.22 2.80 2.30 3.18 1.36 3.57C1.36 3.71 1.67 3.95 1.81 3.95C1.99 3.95 2.56 3.40 3.74 3.19C2.51 5.59 1.05 10.12 0.77 11.05C0.70 11.28 0.57 11.62 0.57 11.84C0.57 12.22 0.94 12.52 1.40 12.52C1.82 11.07 2.23 9.52 2.66 8.01C2.97 8.01 3.35 7.99 3.71 7.99C5.31 7.99 7.24 8.23 7.24 9.76C7.24 11.45 4.89 13.08 1.67 13.08C0.71 13.08 0.48 12.94 0.35 12.94C0.31 12.94 0.28 12.95 0.28 12.98C0.28 13.78 0.81 14.10 1.83 14.10C3.92 14.10 7.90 12.74 7.90 10.01C7.90 9.13 7.48 7.92 4.70 7.76C6.15 7.52 7.91 6.86 7.91 5.03ZM4.70 3.09C5.91 3.09 7.07 3.46 7.07 4.91C7.07 6.96 4.79 7.62 2.74 7.69C3.23 6.02 3.77 4.42 4.44 3.11C4.52 3.09 4.61 3.09 4.70 3.09ZM12.52 9.09C11.98 10.14 10.84 12.74 9.97 12.74C9.51 12.74 9.46 12.04 9.46 11.80C9.46 10.86 10.09 9.46 10.40 8.99C10.25 8.82 9.98 8.71 9.88 8.71C9.46 8.71 8.65 10.82 8.65 11.89C8.65 12.64 9.07 13.30 9.70 13.30C10.40 13.30 11.02 12.49 11.54 11.56C11.48 11.80 11.44 12.04 11.44 12.26C11.44 12.84 11.68 13.30 12.42 13.30C13.41 13.30 14.63 12.25 15.23 10.74L15.05 10.61C14.36 12.05 13.30 12.88 12.71 12.88C12.38 12.88 12.25 12.66 12.25 12.32C12.25 11.38 13.19 9.60 13.19 9.45C13.19 9.21 12.67 9.11 12.52 9.09ZM19.29 9.07C19.18 9.04 19.08 9.03 19.00 9.03C18.54 9.03 18.34 9.48 18.28 9.74C18.24 9.97 18.20 10.18 18.14 10.39C17.58 11.31 16.81 12.18 16.28 12.18C15.90 12.18 15.78 11.96 15.78 11.62C15.78 10.86 16.38 9.35 16.70 8.88C16.70 8.71 16.20 8.55 16.09 8.55C15.68 8.55 14.85 10.57 14.85 11.61C14.85 12.39 15.43 12.74 15.97 12.74C16.73 12.74 17.42 11.94 18.02 10.96C17.77 11.98 17.50 12.84 17.23 13.52C15.82 14.24 14.52 14.87 14.52 16.06C14.52 16.55 14.92 16.80 15.40 16.80C16.37 16.80 17.32 15.16 18.05 13.37C19.08 12.89 20.27 12.10 20.69 10.75L20.51 10.61C19.98 11.90 19.07 12.66 18.20 12.99C18.86 11.30 19.29 9.53 19.29 9.07ZM15.33 16.35C15.05 16.35 14.95 16.09 14.95 15.93C14.95 15.01 15.93 14.48 17.09 13.86C16.34 15.71 15.61 16.35 15.33 16.35ZM26.10 3.14C26.75 3.14 27.09 3.47 27.09 4.05C27.09 4.77 26.57 5.42 25.91 5.99C26.03 6.23 26.22 6.44 26.43 6.44C26.89 6.44 27.55 5.38 27.55 4.33C27.55 3.36 26.99 2.81 25.96 2.81C24.29 2.81 23.07 4.23 23.07 5.71C23.07 6.50 23.41 7.32 24.14 7.92C22.12 8.12 20.51 9.83 20.51 11.55C20.51 12.94 21.56 14.10 23.24 14.10C25.12 14.10 26.63 12.66 27.61 10.75L27.41 10.61C26.67 12.21 25.09 13.62 23.60 13.62C22.29 13.62 21.81 12.52 21.81 11.59C21.81 10.11 23.03 8.37 24.91 8.06C24.23 7.49 24.09 6.62 24.09 5.95C24.09 4.42 24.79 3.14 26.10 3.14ZM31.05 9.91C30.37 10.92 28.98 12.96 28.11 12.96C27.86 12.96 27.73 12.80 27.73 12.42C27.73 11.06 29.30 8.46 30.62 8.46C31.12 8.46 31.30 8.82 31.30 9.24C31.30 9.39 31.28 9.58 31.23 9.73C31.64 9.73 31.92 9.59 31.92 9.13C31.92 8.50 31.37 8.08 30.65 8.08C28.83 8.08 26.77 10.71 26.77 12.38C26.77 13.16 27.22 13.54 27.80 13.54C28.49 13.54 29.11 12.99 29.92 11.91C29.89 12.07 29.88 12.21 29.88 12.32C29.88 12.81 30.20 13.30 30.88 13.30C31.88 13.30 33.07 12.26 33.66 10.75L33.52 10.61C32.68 12.10 31.78 12.82 31.28 12.82C30.94 12.82 30.80 12.49 30.80 12.21C30.80 11.54 31.61 10.58 31.61 10.26C31.61 10.05 31.22 9.94 31.05 9.91ZM32.97 11.76C32.97 12.60 33.40 13.59 34.72 13.59C35.52 13.59 36.22 13.23 36.51 12.43C37.35 12.31 38.12 11.79 38.47 10.77L38.35 10.63C37.80 11.68 37.23 12.10 36.58 12.21C36.64 12.00 36.67 11.77 36.67 11.52C36.67 10.23 35.94 9.07 35.94 8.15C35.94 7.83 36.02 7.63 36.02 7.53C36.02 7.43 35.95 7.35 35.80 7.35C35.53 7.35 35.25 7.62 35.25 8.30L35.25 8.47C34.90 9.21 34.43 9.88 33.87 10.50C33.71 10.67 32.97 10.65 32.97 11.76ZM35.76 11.54C35.76 11.82 35.73 12.01 35.70 12.19C34.85 12.01 34.24 11.42 33.96 10.82C34.38 10.40 34.89 9.72 35.32 9.00C35.46 9.77 35.76 10.65 35.76 11.54ZM34.75 13.10C34.02 13.10 33.60 12.42 33.60 11.75C33.60 11.45 33.68 11.27 33.91 11.26C34.20 11.73 34.85 12.26 35.63 12.42C35.42 13.03 34.97 13.10 34.75 13.10ZM42.59 9.07C42.48 9.04 42.38 9.03 42.29 9.03C41.83 9.03 41.64 9.48 41.58 9.74C41.54 9.97 41.50 10.18 41.44 10.39C40.88 11.31 40.11 12.18 39.58 12.18C39.20 12.18 39.07 11.96 39.07 11.62C39.07 10.86 39.68 9.35 40.00 8.88C40.00 8.71 39.49 8.55 39.38 8.55C38.98 8.55 38.15 10.57 38.15 11.61C38.15 12.39 38.72 12.74 39.27 12.74C40.03 12.74 40.71 11.94 41.31 10.96C41.06 11.98 40.80 12.84 40.53 13.52C39.12 14.24 37.81 14.87 37.81 16.06C37.81 16.55 38.22 16.80 38.70 16.80C39.66 16.80 40.61 15.16 41.34 13.37C42.38 12.89 43.57 12.10 43.99 10.75L43.81 10.61C43.27 11.90 42.36 12.66 41.50 12.99C42.15 11.30 42.59 9.53 42.59 9.07ZM38.63 16.35C38.35 16.35 38.25 16.09 38.25 15.93C38.25 15.01 39.23 14.48 40.39 13.86C39.63 15.71 38.91 16.35 38.63 16.35Z"></path></g><!----><!----></svg>